<mxfile host="Electron" modified="2023-09-05T11:18:16.931Z" agent="Mozilla/5.0 (Macintosh; Intel Mac OS X 10_15_7) AppleWebKit/537.36 (KHTML, like Gecko) draw.io/21.6.8 Chrome/114.0.5735.289 Electron/25.5.0 Safari/537.36" etag="J2sufMbwnyuoTC8N5lln" version="21.6.8" type="device">
  <diagram name="第 1 页" id="5WZG1JnQ8gCyZjxwg-Xr">
    <mxGraphModel dx="1114" dy="878" grid="1" gridSize="10" guides="1" tooltips="1" connect="1" arrows="1" fold="1" page="1" pageScale="1" pageWidth="827" pageHeight="1169" math="0" shadow="0">
      <root>
        <mxCell id="0" />
        <mxCell id="1" parent="0" />
      </root>
    </mxGraphModel>
  </diagram>
</mxfile>
